<svg width="104" height="39" viewBox="0 0 104 39" fill="none" xmlns="http://www.w3.org/2000/svg">
<path d="M15.834 10.848H9.114V1.86C9.114 1.384 9.03 1.034 8.862 0.809998C8.694 0.557998 8.456 0.431998 8.148 0.431998C7.84 0.431998 7.602 0.557998 7.434 0.809998C7.294 1.034 7.224 1.384 7.224 1.86V9.588C7.224 9.952 7.252 10.274 7.308 10.554C7.364 10.806 7.504 11.058 7.728 11.31C7.98 11.562 8.33 11.828 8.778 12.108C9.254 12.388 9.898 12.738 10.71 13.158L12.012 13.788C12.768 14.18 13.384 14.614 13.86 15.09C14.364 15.538 14.756 16.084 15.036 16.728C15.344 17.344 15.554 18.086 15.666 18.954C15.806 19.822 15.876 20.858 15.876 22.062V22.65C15.876 25.142 15.19 27.06 13.818 28.404C12.474 29.748 10.556 30.42 8.064 30.42C5.572 30.42 3.682 29.762 2.394 28.446C1.106 27.102 0.462 25.17 0.462 22.65V19.752H7.182V28.74C7.182 29.216 7.266 29.58 7.434 29.832C7.602 30.056 7.84 30.168 8.148 30.168C8.484 30.168 8.736 30.056 8.904 29.832C9.072 29.58 9.156 29.23 9.156 28.782V20.928C9.156 20.536 9.128 20.214 9.072 19.962C9.016 19.71 8.876 19.472 8.652 19.248C8.428 18.996 8.092 18.744 7.644 18.492C7.224 18.212 6.65 17.876 5.922 17.484L4.452 16.77C3.696 16.35 3.052 15.902 2.52 15.426C2.016 14.95 1.61 14.39 1.302 13.746C1.022 13.074 0.812 12.304 0.672 11.436C0.56 10.568 0.504 9.532 0.504 8.328V7.908C0.504 5.388 1.148 3.47 2.436 2.154C3.752 0.837998 5.628 0.179998 8.064 0.179998C10.556 0.179998 12.474 0.851998 13.818 2.196C15.162 3.54 15.834 5.444 15.834 7.908V10.848ZM20.6502 8.58H27.0342V30H20.6502V8.58ZM20.3562 3.834C20.3562 2.77 20.6642 1.986 21.2802 1.482C21.8962 0.977999 22.7362 0.725999 23.8002 0.725999C24.8642 0.725999 25.7182 0.977999 26.3622 1.482C27.0062 1.986 27.3282 2.77 27.3282 3.834C27.3282 4.898 27.0062 5.682 26.3622 6.186C25.7462 6.69 24.9062 6.942 23.8422 6.942C22.7502 6.942 21.8962 6.69 21.2802 6.186C20.6642 5.682 20.3562 4.898 20.3562 3.834ZM46.2171 8.58V32.394C46.2171 33.402 46.0491 34.298 45.7131 35.082C45.4051 35.894 44.9431 36.58 44.3271 37.14C43.7111 37.7 42.9551 38.12 42.0591 38.4C41.1911 38.68 40.1831 38.82 39.0351 38.82C36.7391 38.82 34.9611 38.246 33.7011 37.098C32.4691 35.978 31.8531 34.41 31.8531 32.394V31.218H38.1951V37.224C38.1951 37.644 38.2651 37.966 38.4051 38.19C38.5451 38.442 38.7551 38.568 39.0351 38.568C39.1751 38.568 39.2871 38.54 39.3711 38.484C39.4831 38.428 39.5671 38.33 39.6231 38.19C39.6791 38.078 39.7211 37.938 39.7491 37.77C39.8051 37.602 39.8331 37.392 39.8331 37.14V27.858H39.7491C39.1891 28.698 38.5731 29.342 37.9011 29.79C37.2571 30.21 36.5711 30.42 35.8431 30.42C35.2551 30.42 34.6951 30.28 34.1631 30C33.6591 29.72 33.2251 29.328 32.8611 28.824C32.5251 28.292 32.2591 27.662 32.0631 26.934C31.8671 26.206 31.7691 25.394 31.7691 24.498V13.83C31.7691 12.934 31.8531 12.15 32.0211 11.478C32.2171 10.778 32.4831 10.19 32.8191 9.714C33.1831 9.21 33.6171 8.832 34.1211 8.58C34.6251 8.3 35.1711 8.16 35.7591 8.16C36.5151 8.16 37.2151 8.37 37.8591 8.79C38.5311 9.21 39.1611 9.854 39.7491 10.722H39.8331V8.58H46.2171ZM39.8331 11.184C39.7211 10.96 39.5811 10.764 39.4131 10.596C39.2451 10.428 39.0631 10.344 38.8671 10.344C38.7831 10.344 38.6851 10.372 38.5731 10.428C38.4891 10.484 38.4051 10.554 38.3211 10.638C38.2651 10.722 38.2231 10.834 38.1951 10.974C38.1671 11.114 38.1531 11.254 38.1531 11.394V27.102C38.1531 27.27 38.1671 27.424 38.1951 27.564C38.2231 27.704 38.2651 27.83 38.3211 27.942C38.4051 28.026 38.4891 28.096 38.5731 28.152C38.6851 28.208 38.7831 28.236 38.8671 28.236C38.9791 28.236 39.0771 28.222 39.1611 28.194C39.2731 28.138 39.3571 28.068 39.4131 27.984C39.4971 27.9 39.5671 27.816 39.6231 27.732C39.7071 27.62 39.7771 27.508 39.8331 27.396V11.184ZM57.2319 9.756V28.824C57.2319 29.244 57.3019 29.58 57.4419 29.832C57.6099 30.056 57.8199 30.168 58.0719 30.168C58.2119 30.168 58.3239 30.14 58.4079 30.084C58.5199 30.028 58.6039 29.944 58.6599 29.832C58.7439 29.692 58.7999 29.552 58.8279 29.412C58.8839 29.244 58.9119 29.048 58.9119 28.824V21.222H65.2959V23.238C65.2959 24.358 65.1139 25.352 64.7499 26.22C64.4139 27.088 63.9239 27.844 63.2799 28.488C62.6639 29.104 61.9079 29.58 61.0119 29.916C60.1159 30.252 59.1079 30.42 57.9879 30.42C55.7759 30.42 54.0259 29.79 52.7379 28.53C51.4779 27.242 50.8479 25.478 50.8479 23.238V15.3C50.8479 14.208 51.0159 13.228 51.3519 12.36C51.6879 11.464 52.1639 10.708 52.7799 10.092C53.3959 9.476 54.1379 9 55.0059 8.664C55.8739 8.328 56.8679 8.16 57.9879 8.16C60.2279 8.16 62.0059 8.804 63.3219 10.092C64.6379 11.38 65.2959 13.116 65.2959 15.3V19.29H56.4759V19.038H58.9119V9.756C58.9119 9.336 58.8279 9.014 58.6599 8.79C58.5199 8.538 58.3239 8.412 58.0719 8.412C57.9599 8.412 57.8479 8.44 57.7359 8.496C57.6239 8.552 57.5259 8.636 57.4419 8.748C57.3859 8.86 57.3299 9 57.2739 9.168C57.2459 9.336 57.2319 9.532 57.2319 9.756ZM69.9687 8.58H76.3107V11.1H76.3947C77.1227 10.092 77.7947 9.35 78.4107 8.874C79.0547 8.398 79.7407 8.16 80.4687 8.16C81.0567 8.16 81.5887 8.3 82.0647 8.58C82.5407 8.86 82.9467 9.266 83.2827 9.798C83.6467 10.33 83.9127 10.974 84.0807 11.73C84.2767 12.458 84.3747 13.27 84.3747 14.166V24.54C84.3747 25.408 84.2767 26.206 84.0807 26.934C83.9127 27.662 83.6607 28.292 83.3247 28.824C82.9887 29.328 82.5827 29.72 82.1067 30C81.6307 30.28 81.0987 30.42 80.5107 30.42C79.7547 30.42 79.0547 30.182 78.4107 29.706C77.7947 29.23 77.1227 28.488 76.3947 27.48H76.3107V38.442H69.9687V8.58ZM76.3107 11.562V27.018C76.3667 27.13 76.4227 27.242 76.4787 27.354C76.5627 27.466 76.6467 27.564 76.7307 27.648C76.8147 27.704 76.8987 27.76 76.9827 27.816C77.0947 27.844 77.1927 27.858 77.2767 27.858C77.3887 27.858 77.4867 27.83 77.5707 27.774C77.6547 27.718 77.7247 27.648 77.7807 27.564C77.8647 27.452 77.9207 27.326 77.9487 27.186C78.0047 27.046 78.0327 26.892 78.0327 26.724V11.772C78.0327 11.604 78.0047 11.464 77.9487 11.352C77.9207 11.212 77.8647 11.1 77.7807 11.016C77.7247 10.932 77.6547 10.862 77.5707 10.806C77.4867 10.75 77.3887 10.722 77.2767 10.722C77.1647 10.722 77.0667 10.75 76.9827 10.806C76.8987 10.834 76.8147 10.89 76.7307 10.974C76.6467 11.03 76.5627 11.114 76.4787 11.226C76.4227 11.338 76.3667 11.45 76.3107 11.562ZM89.0055 15.3C89.0055 14.264 89.1595 13.312 89.4675 12.444C89.7755 11.548 90.2235 10.792 90.8115 10.176C91.3995 9.56 92.1415 9.07 93.0375 8.706C93.9615 8.342 94.9975 8.16 96.1455 8.16C97.3495 8.16 98.3995 8.342 99.2955 8.706C100.192 9.07 100.948 9.574 101.564 10.218C102.18 10.834 102.642 11.59 102.95 12.486C103.286 13.354 103.454 14.292 103.454 15.3V23.238C103.454 24.274 103.286 25.24 102.95 26.136C102.642 27.004 102.18 27.76 101.564 28.404C100.948 29.02 100.192 29.51 99.2955 29.874C98.3995 30.238 97.3495 30.42 96.1455 30.42C94.9975 30.42 93.9755 30.238 93.0795 29.874C92.1835 29.51 91.4275 29.02 90.8115 28.404C90.2235 27.788 89.7755 27.032 89.4675 26.136C89.1595 25.24 89.0055 24.274 89.0055 23.238V15.3ZM95.3895 9.756V28.824C95.3895 29.244 95.4595 29.58 95.5995 29.832C95.7675 30.056 95.9775 30.168 96.2295 30.168C96.3695 30.168 96.4815 30.14 96.5655 30.084C96.6775 30.028 96.7615 29.944 96.8175 29.832C96.9015 29.692 96.9575 29.552 96.9855 29.412C97.0415 29.244 97.0695 29.048 97.0695 28.824V9.756C97.0695 9.308 96.9855 8.972 96.8175 8.748C96.6775 8.524 96.4815 8.412 96.2295 8.412C96.1175 8.412 96.0055 8.44 95.8935 8.496C95.7815 8.552 95.6835 8.636 95.5995 8.748C95.5435 8.86 95.4875 9 95.4315 9.168C95.4035 9.308 95.3895 9.504 95.3895 9.756Z" fill="#33A9FF"/>
</svg>
